<svg width="248" height="94" viewBox="0 0 248 94" fill="none" xmlns="http://www.w3.org/2000/svg">
<path d="M69.7148 78.2878V18.5703H75.9084L85.277 46.261L94.9662 18.5703H100.929V78.2878H95.0854V36.4974L85.4484 62.8424H84.7851L75.5209 36.7368V78.2878H69.7148Z" fill="#262626"/>
<path d="M117.645 79.5312C115.004 79.7671 112.373 78.7423 109.969 76.5409C108.093 74.7122 106.561 71.7182 105.601 68.0034C104.631 64.002 104.154 59.5929 104.207 55.1449V54.3674C104.167 49.7399 104.719 45.1687 105.81 41.0903C106.896 37.1939 108.529 34.0228 110.505 31.9697C112.816 29.6512 115.376 28.516 117.959 28.6653C120.543 28.4736 123.108 29.611 125.411 31.9697C127.314 34.0001 128.872 37.1239 129.883 40.9408C130.892 44.814 131.404 49.1305 131.373 53.5003V58.5988H110.132C110.234 60.2294 110.497 61.8028 110.905 63.2275C111.314 64.6522 111.859 65.8996 112.51 66.8969C113.792 68.796 115.61 69.7378 117.98 69.7378C119.387 69.8439 120.788 69.3336 122.088 68.2427C123.057 67.3635 123.845 65.8434 124.323 63.9366H131.031C130.178 68.8863 128.466 73.0567 126.209 75.6887C123.573 78.4656 120.619 79.7914 117.645 79.5312ZM118.063 38.1598C116.175 37.9846 114.309 39.033 112.741 41.1501C111.403 43.1695 110.499 46.1376 110.214 49.4482H125.24C124.743 41.9326 122.351 38.1696 118.063 38.1598Z" fill="#262626"/>
<path d="M147.414 79.5314C144.773 79.7673 142.142 78.7425 139.738 76.5411C137.864 74.7099 136.335 71.7159 135.378 68.0036C134.405 64.0033 133.925 59.5942 133.976 55.1451V54.3676C133.934 49.7378 134.488 45.1645 135.586 41.0904C136.672 37.194 138.306 34.0228 140.282 31.9697C142.591 29.6477 145.152 28.5123 147.734 28.6655C150.319 28.4729 152.885 29.6105 155.188 31.9697C157.09 34.0024 158.646 37.1255 159.66 40.9407C160.666 44.8167 161.178 49.1313 161.15 53.5003V58.599H139.983C140.086 60.2302 140.35 61.8042 140.76 63.2288C141.17 64.6535 141.716 65.9005 142.368 66.8971C143.643 68.7959 145.469 69.738 147.831 69.738C149.24 69.8462 150.645 69.3358 151.946 68.2427C152.916 67.3655 153.706 65.845 154.181 63.9366H160.89C160.038 68.8846 158.33 73.0553 156.075 75.6889C153.41 78.4953 150.42 79.8221 147.414 79.5314ZM147.831 38.1597C145.943 37.9889 144.078 39.0371 142.51 41.1501C141.172 43.1672 140.27 46.1373 139.99 49.4484H155.016C154.509 41.9326 152.115 38.1698 147.831 38.1597Z" fill="#262626"/>
<path d="M175.348 79.4848C173.264 79.5715 171.201 78.6482 169.334 76.7934C167.574 74.9559 166.14 72.0737 165.227 68.54C164.16 64.1997 163.648 59.3959 163.736 54.5602V53.8875C163.664 49.1744 164.176 44.4994 165.227 40.2813C166.147 36.7052 167.576 33.7593 169.334 31.8186C171.252 29.8276 173.39 28.8401 175.55 28.9479C177.433 28.8392 179.301 29.6933 180.975 31.4297C182.446 33.0183 183.662 35.4142 184.478 38.3376V16.5977H190.441V78.2887H185.261L184.725 68.585C183.991 71.886 182.775 74.6606 181.236 76.5394C179.448 78.6024 177.409 79.6226 175.348 79.4848ZM177.182 69.1831C179.572 69.1831 181.423 67.8822 182.734 65.2805C183.412 63.8366 183.935 62.1304 184.272 60.2664C184.609 58.4025 184.753 56.42 184.694 54.4405V53.9471C184.747 51.9417 184.601 49.9351 184.264 48.0437C183.928 46.1522 183.408 44.4134 182.734 42.9278C182.027 41.5421 181.182 40.4663 180.256 39.7689C179.329 39.0712 178.341 38.7672 177.353 38.8757C174.871 38.8757 173.038 40.1914 171.838 42.853C170.638 45.5144 170.041 49.1925 170.041 53.9471V54.5303C170.041 59.4344 170.66 63.1125 171.883 65.5348C173.105 67.957 174.871 69.1831 177.182 69.1831Z" fill="#262626"/>
<path d="M202.545 79.7832C199.643 79.7832 197.451 78.6219 195.971 76.2994C195.235 75.1549 194.648 73.6711 194.258 71.9741C193.868 70.277 193.689 68.4167 193.735 66.551C193.659 64.1136 193.939 61.6852 194.54 59.5613C195.142 57.4375 196.038 55.71 197.119 54.5893C197.838 53.7433 198.603 53.0661 199.399 52.5709C200.375 51.9858 201.371 51.5508 202.38 51.2702C203.574 50.9112 205.146 50.5226 207.091 50.1337C208.779 49.9549 210.451 49.3678 212.07 48.3844C212.479 48.1561 212.838 47.6625 213.091 46.9806C213.345 46.2985 213.479 45.4672 213.471 44.6166V44.527C213.467 43.6067 213.348 42.7029 213.127 41.8984C212.904 41.0939 212.584 40.4144 212.196 39.9217C211.346 38.6958 209.856 38.0827 207.724 38.0827C205.329 38.0827 203.612 38.8503 202.575 40.3852C202.05 41.179 201.619 42.1946 201.313 43.36C201.006 44.5254 200.831 45.812 200.801 47.1285H194.406C194.497 44.4747 194.879 41.8938 195.522 39.5684C196.167 37.2431 197.057 35.2301 198.132 33.6718C200.323 30.4921 203.354 28.9023 207.225 28.9023C211.428 28.9023 214.489 30.3527 216.408 33.2532C218.326 36.1539 219.297 40.6993 219.322 46.8894V78.2879H214.351L213.724 68.0011C212.777 71.5224 211.354 74.4353 209.617 76.404C207.455 78.7907 205.011 79.9586 202.545 79.7832ZM204.505 70.6477C206.136 70.7207 207.75 69.9755 209.2 68.4796C210.46 67.1844 211.54 65.284 212.345 62.9475C213.063 60.9451 213.458 58.5504 213.479 56.0846V54.3651C212.886 55.2861 212.202 55.9436 211.473 56.2939C210.361 56.8701 209.231 57.2899 208.09 57.5499C206.286 57.9387 204.924 58.3124 204.006 58.6712C203.223 58.9099 202.466 59.4157 201.769 60.1665C201.324 60.604 200.948 61.2821 200.686 62.1249C200.422 62.9677 200.281 63.9414 200.279 64.936V65.0259C200.259 65.8175 200.338 66.6069 200.508 67.3222C200.679 68.0375 200.936 68.6563 201.255 69.1227C202.234 70.2883 203.369 70.8208 204.505 70.6477Z" fill="#262626"/>
<path d="M222.75 78.3642V30.2195H227.967L228.511 40.2672C229.233 36.9146 230.421 34.0494 231.933 32.0137C233.648 29.8141 235.659 28.7185 237.694 28.8739C240.943 28.8739 243.44 30.7876 245.184 34.6152C246.928 38.4429 247.798 43.5913 247.793 50.0606V78.3642H241.614V53.0658C241.71 49.4865 241.252 45.9354 240.302 42.8987C239.423 40.4166 237.885 39.1756 235.689 39.1756C233.379 39.1756 231.675 40.5411 230.576 43.2724C229.473 46.0085 228.929 49.8361 228.929 54.7404V78.3642H222.75Z" fill="#262626"/>
<path fill-rule="evenodd" clip-rule="evenodd" d="M29.2046 31.4531L19.0234 46.2157L29.2046 60.9783L39.3857 46.2157L29.2046 31.4531Z" fill="#91A000"/>
<path fill-rule="evenodd" clip-rule="evenodd" d="M9.58594 3.00781C11.0102 5.19446 11.9299 8.63795 11.9299 12.5132V35.9326L19.0226 46.2171L29.2038 31.4545L9.58594 3.00781Z" fill="#9DC538"/>
<path fill-rule="evenodd" clip-rule="evenodd" d="M9.58594 89.4271C11.0102 87.2404 11.9299 83.797 11.9299 79.9216V56.5023L19.0226 46.2188L29.2038 60.9804L9.58594 89.4271Z" fill="#FBD202"/>
<path fill-rule="evenodd" clip-rule="evenodd" d="M9.58594 3.00889L9.29341 2.58566C8.34281 1.30104 7.19771 0.550781 5.96471 0.550781C2.67064 0.550781 0 5.90733 0 12.5143C0 16.5221 0.983105 20.065 2.49106 22.2377V22.2474L11.9299 35.9347V12.5143C11.9299 8.63903 11.0103 5.19554 9.58594 3.00889Z" fill="#843F18"/>
<path fill-rule="evenodd" clip-rule="evenodd" d="M11.9294 79.9223V56.5039L2.49054 70.1894V70.2011C0.983105 72.3706 0 75.9167 0 79.9234C0 86.5305 2.67011 91.8869 5.96471 91.8869C7.19718 91.8869 8.34228 91.1367 9.29341 89.8521L9.58541 89.4278C11.0103 87.2412 11.9294 83.7976 11.9294 79.9223Z" fill="#EA4918"/>
<path fill-rule="evenodd" clip-rule="evenodd" d="M2.49106 22.2352C0.983105 20.0645 0 16.5185 0 12.5117V79.9004C0 75.8937 0.983105 72.3496 2.49106 70.1769L11.9299 56.482V35.9301L2.49106 22.2352Z" fill="#F17522"/>
<path fill-rule="evenodd" clip-rule="evenodd" d="M48.823 3.00781C47.3987 5.19446 46.479 8.63795 46.479 12.5132V35.9326L39.3862 46.2171L29.2051 31.4545L48.823 3.00781Z" fill="#FBD202"/>
<path fill-rule="evenodd" clip-rule="evenodd" d="M48.823 89.4271C47.3987 87.2404 46.479 83.797 46.479 79.9216V56.5023L39.3862 46.2188L29.2051 60.9813L48.823 89.4271Z" fill="#9DC538"/>
<path fill-rule="evenodd" clip-rule="evenodd" d="M46.4785 12.5154V35.9338L55.9175 22.2484V22.2367C57.4249 20.0671 58.408 16.521 58.408 12.5143C58.408 5.90732 55.7378 0.550781 52.4433 0.550781C51.2107 0.550781 50.0657 1.30104 49.1145 2.58568L48.8225 3.00997C47.3977 5.19661 46.4785 8.64011 46.4785 12.5154Z" fill="#00A013"/>
<path fill-rule="evenodd" clip-rule="evenodd" d="M48.8225 89.4248L49.115 89.848C50.0656 91.1326 51.2107 91.883 52.4437 91.883C55.7378 91.883 58.4085 86.5263 58.4085 79.9193C58.4085 75.9115 57.4253 72.3686 55.9174 70.1969V70.1862L46.4785 56.5V79.9193C46.4785 83.7946 47.3982 87.238 48.8225 89.4248Z" fill="#01722F"/>
<path fill-rule="evenodd" clip-rule="evenodd" d="M55.9174 22.2352C57.4253 20.0645 58.4085 16.5185 58.4085 12.5117V79.9004C58.4085 75.8937 57.4253 72.3496 55.9174 70.1769L46.4785 56.482V35.9301L55.9174 22.2352Z" fill="#37A0DE"/>
</svg>
